HIERARCHY
ROOT root
{
	OFFSET 0.000000 0.000000 0.000000
	CHANNELS 6 Xposition Yposition Zposition Zrotation Yrotation Xrotation
	JOINT lhip
	{
		OFFSET 0.058581 -0.082280 -0.017664
		CHANNELS 3 Zrotation Yrotation Xrotation
		JOINT lknee
		{
			OFFSET 0.043451 -0.386469 0.008037
			CHANNELS 3 Zrotation Yrotation Xrotation
			JOINT lankle
			{
				OFFSET -0.014790 -0.426874 -0.037428
				CHANNELS 3 Zrotation Yrotation Xrotation
				JOINT ltoe
				{
					OFFSET 0.041054 -0.060286 0.122042
					CHANNELS 3 Zrotation Yrotation Xrotation
					End Site
					{
						OFFSET 0.000000 0.000000 0.000000
					}
				}
			}
		}
	}
	JOINT rhip
	{
		OFFSET -0.060310 -0.090513 -0.013543
		CHANNELS 3 Zrotation Yrotation Xrotation
		JOINT rknee
		{
			OFFSET -0.043257 -0.383688 -0.004843
			CHANNELS 3 Zrotation Yrotation Xrotation
			JOINT rankle
			{
				OFFSET 0.019056 -0.420046 -0.034562
				CHANNELS 3 Zrotation Yrotation Xrotation
				JOINT rtoe
				{
					OFFSET -0.034840 -0.062106 0.130323
					CHANNELS 3 Zrotation Yrotation Xrotation
					End Site
					{
						OFFSET 0.000000 0.000000 0.000000
					}
				}
			}
		}
	}
	JOINT lowerback
	{
		OFFSET 0.004439 0.124404 -0.038385
		CHANNELS 3 Zrotation Yrotation Xrotation
		JOINT upperback
		{
			OFFSET 0.004488 0.137956 0.026820
			CHANNELS 3 Zrotation Yrotation Xrotation
			JOINT chest
			{
				OFFSET -0.002265 0.056032 0.002855
				CHANNELS 3 Zrotation Yrotation Xrotation
				JOINT lowerneck
				{
					OFFSET -0.013390 0.211636 -0.033468
					CHANNELS 3 Zrotation Yrotation Xrotation
					JOINT upperneck
					{
						OFFSET 0.010113 0.088937 0.050410
						CHANNELS 3 Zrotation Yrotation Xrotation
						End Site
						{
							OFFSET 0.000000 0.000000 0.000000
						}
					}
				}
				JOINT lclavicle
				{
					OFFSET 0.071702 0.114000 -0.018898
					CHANNELS 3 Zrotation Yrotation Xrotation
					JOINT lshoulder
					{
						OFFSET 0.122921 0.045205 -0.019046
						CHANNELS 3 Zrotation Yrotation Xrotation
						JOINT lelbow
						{
							OFFSET 0.255332 -0.015649 -0.022946
							CHANNELS 3 Zrotation Yrotation Xrotation
							JOINT lwrist
							{
								OFFSET 0.265709 0.012698 -0.007375
								CHANNELS 3 Zrotation Yrotation Xrotation
								End Site
								{
									OFFSET 0.000000 0.000000 0.000000
								}
							}
						}
					}
				}
				JOINT rclavicle
				{
					OFFSET -0.082954 0.112472 -0.023707
					CHANNELS 3 Zrotation Yrotation Xrotation
					JOINT rshoulder
					{
						OFFSET -0.113228 0.046853 -0.008472
						CHANNELS 3 Zrotation Yrotation Xrotation
						JOINT relbow
						{
							OFFSET -0.260127 -0.014369 -0.031269
							CHANNELS 3 Zrotation Yrotation Xrotation
							JOINT rwrist
							{
								OFFSET -0.269108 0.006794 -0.006027
								CHANNELS 3 Zrotation Yrotation Xrotation
								End Site
								{
									OFFSET 0.000000 0.000000 0.000000
								}
							}
						}
					}
				}
			}
		}
	}
}
MOTION
Frames: 14
Frame Time: 0.033333
-1.985896 0.673971 0.991354 -26.966448 4.561180 89.819325 3.201586 1.428634 -13.236278 -2.687752 6.533378 25.912225 6.191148 15.295351 -16.482097 0.000000 -0.000000 0.000000 0.429681 -7.291946 -10.124020 -3.571554 -16.119787 29.579445 0.620272 -17.730844 -14.265586 0.000000 -0.000000 0.000000 -2.704302 1.578650 18.025412 1.035017 -2.694060 -4.039269 1.846261 -1.805702 4.865782 0.687790 1.899268 -11.090437 0.523109 3.151204 -2.063816 -21.103704 -2.505350 0.506302 -52.550972 -12.268409 2.254512 10.849221 -21.689349 1.047815 2.850397 -6.626910 -8.109814 17.711847 0.529091 1.782051 53.881097 -0.609787 8.227495 -15.382640 29.682650 -1.178625 2.260494 4.276537 -4.418162 
-1.989857 0.671575 0.987351 -22.323417 4.691959 88.896689 4.007324 0.210004 -13.747435 -3.856963 4.786257 29.003812 6.424285 13.971702 -17.319403 0.000000 -0.000000 0.000000 -0.355068 -7.561149 -10.814086 -4.076942 -16.157833 35.794354 0.188340 -16.892740 -12.944323 0.000000 -0.000000 0.000000 -2.542182 2.373663 19.149504 1.143527 -2.008444 -3.343251 2.080048 -1.733744 4.393411 0.829987 2.341926 -12.136443 0.069214 2.506771 -2.785363 -21.428248 -3.310895 0.856409 -53.843678 -11.586828 2.704592 10.676141 -21.774508 4.508666 -5.639333 -6.063296 -7.522038 18.126818 1.451436 2.271657 53.986477 -0.118942 7.552153 -16.283991 30.030516 -0.921415 7.590343 4.019178 -4.650903 
-1.993443 0.670559 0.984093 -18.196570 4.884778 88.682838 4.246986 -0.699686 -14.557705 -4.625506 2.644331 30.884355 7.499896 13.803095 -18.153285 0.000000 -0.000000 0.000000 -0.644180 -7.127574 -12.358537 -3.840806 -14.382125 40.367238 -0.216851 -16.384513 -13.296985 0.000000 -0.000000 0.000000 -2.514899 3.120554 19.039876 1.346595 -0.735479 -2.135907 2.243670 -1.284759 4.053713 1.016765 2.142476 -12.811469 -0.238853 2.291878 -3.724148 -21.903525 -3.321820 0.720556 -54.107447 -11.081918 2.596388 11.938279 -21.254532 4.387607 -12.933780 -4.352047 -8.137096 18.435015 2.344141 2.811433 53.136622 1.237201 7.276571 -16.989942 29.630155 -0.321737 13.913146 3.226279 -2.733196 
-1.996925 0.670412 0.980926 -14.183877 5.219079 88.627250 3.750965 -1.728601 -15.943068 -4.401910 -0.249586 33.405614 8.215948 14.594524 -18.586759 0.000000 -0.000000 0.000000 -0.493610 -6.065209 -13.394896 -2.833992 -11.394508 41.584636 0.312691 -14.995550 -14.824631 0.000000 -0.000000 0.000000 -2.029091 3.364072 19.311791 1.279744 0.126481 -1.876754 2.390677 -1.031544 4.291049 1.366524 2.501983 -14.127711 -0.976329 2.692408 -4.302958 -22.356557 -2.074156 -0.081565 -52.391609 -9.695883 1.378362 12.577225 -21.025064 1.180716 -16.498158 -3.780698 -10.111651 18.811059 3.472959 2.662066 50.312502 3.133418 7.758025 -16.400605 29.299743 1.865298 18.920547 1.822984 -0.022569 
-2.001948 0.669888 0.977688 -10.913424 5.828791 88.727742 4.302684 -3.205862 -16.997870 -4.900079 -2.107318 35.038065 8.203856 15.220408 -19.300460 0.000000 -0.000000 0.000000 -0.075380 -4.228579 -14.038970 -1.570579 -8.359112 40.195362 0.561105 -14.200800 -16.117617 0.000000 -0.000000 0.000000 -1.778824 3.309877 19.236630 1.563213 0.995325 -1.747713 2.669183 -0.169210 4.618529 1.240906 3.027997 -14.675174 -1.677898 2.682082 -5.438853 -22.510474 -0.620623 -1.088224 -49.415414 -8.080166 0.331310 12.922386 -20.434204 -3.200063 -13.377160 -4.365085 -12.091322 18.840339 4.182495 2.131429 46.714044 5.266045 8.203014 -15.077393 28.878265 3.561326 18.846005 1.045029 1.114889 
-2.007442 0.668420 0.976938 -8.116971 5.834493 88.198005 4.267068 -4.371433 -16.533390 -5.369645 -3.947790 35.403229 7.859456 15.681335 -19.349148 0.000000 -0.000000 0.000000 -0.174500 -2.579431 -13.104147 -0.359205 -5.083723 36.866695 1.419209 -12.974185 -16.718171 0.000000 -0.000000 0.000000 -1.639224 3.350356 20.324361 1.133970 1.406978 -2.009399 2.667953 0.731197 4.636660 1.096725 3.724978 -14.756128 -1.705827 3.025720 -6.870944 -21.325635 0.283517 -1.800272 -46.198615 -5.876607 -1.210430 14.446724 -19.964637 -7.465667 -5.701727 -4.241269 -11.419412 18.538083 5.876137 1.882152 44.341197 7.219670 7.495797 -14.387225 27.038207 1.944907 12.581508 1.394804 1.549351 
-2.014007 0.668408 0.978203 -5.088683 5.754960 88.161589 4.275326 -5.460151 -16.380668 -5.857215 -6.005599 34.999276 7.463827 16.085473 -18.982195 0.000000 -0.000000 0.000000 0.027852 -1.667406 -12.190250 0.504215 -2.199641 33.632760 2.008869 -12.117812 -16.677782 0.000000 -0.000000 0.000000 -1.791754 3.979015 20.742541 1.056769 1.807235 -2.146864 2.887749 1.367955 5.071137 0.805531 4.697155 -15.538046 -2.058448 3.073084 -7.849107 -19.882019 0.992893 -2.867151 -42.832503 -4.720387 -2.183408 15.262199 -19.416188 -10.600678 5.106365 -4.626537 -9.921283 18.509242 6.970372 1.266919 41.784529 9.113924 6.404752 -14.443737 24.667888 -1.511795 2.219756 2.910037 2.460120 
-2.021288 0.668996 0.981540 -1.842805 5.359189 88.800785 4.003003 -5.928065 -16.658607 -5.942742 -8.175651 33.745101 7.279963 15.634452 -17.903362 0.000000 -0.000000 0.000000 0.444871 -1.833944 -11.570961 0.301494 -1.104779 31.717053 2.042670 -13.291663 -15.881444 0.000000 -0.000000 0.000000 -1.944551 4.352572 20.570802 0.627700 2.162346 -2.680069 2.921683 1.994972 5.478590 0.540484 5.410709 -16.003232 -2.166999 3.542660 -8.178856 -18.816621 1.169127 -3.575721 -39.041960 -4.207548 -3.554512 16.495882 -18.517107 -14.478924 15.362376 -5.359562 -9.142243 18.383986 8.083060 0.959789 39.991751 10.079011 5.516158 -14.937442 22.960136 -5.146764 -7.597375 5.279514 2.351203 
-2.028646 0.669443 0.987011 1.918925 4.762957 89.700070 3.507095 -5.942469 -16.783303 -5.338085 -9.782155 31.248477 6.810675 14.166309 -15.906434 0.000000 -0.000000 0.000000 0.947463 -3.279718 -9.780916 -0.402383 -1.487973 28.154620 1.876173 -13.771254 -14.777279 0.000000 -0.000000 0.000000 -2.127246 5.033104 20.282398 0.186276 2.217648 -2.998506 3.117169 2.418732 5.555348 -0.245278 5.769477 -16.235448 -2.039593 3.875213 -8.993914 -17.613388 1.459122 -4.400078 -36.394644 -4.375457 -4.760216 17.665633 -18.431683 -17.686678 20.464872 -5.664750 -10.110487 17.862005 8.376294 0.373048 38.806967 10.502964 4.517514 -16.013350 22.493968 -8.236773 -12.203590 6.836853 1.451026 
-2.036526 0.671077 0.993805 5.997077 3.856276 91.290055 3.311570 -5.769780 -17.895887 -5.121594 -9.208195 28.484436 6.257817 12.513662 -13.758501 0.000000 -0.000000 0.000000 1.352457 -5.247295 -7.860685 -1.415031 -3.590691 21.787413 1.443327 -15.724760 -14.173049 0.000000 -0.000000 0.000000 -2.542721 5.676879 19.851382 -0.270981 1.980792 -3.950230 3.196479 2.589030 5.349341 -0.906625 5.994275 -16.127164 -1.765174 4.884955 -9.640102 -16.407611 2.238191 -4.898716 -34.225473 -4.718505 -5.732973 17.763428 -19.329538 -19.057895 20.578248 -6.167107 -11.574659 16.937607 8.160277 0.189557 37.995205 10.603621 4.408860 -15.663599 23.317635 -9.476031 -12.861234 7.109794 -0.271619 
-2.043015 0.673210 0.998971 9.801933 2.928747 93.150729 3.039433 -5.537805 -19.700750 -4.490213 -4.432803 26.223459 5.563039 12.668892 -11.994874 0.000000 -0.000000 0.000000 1.845021 -7.254954 -6.949224 -2.488084 -6.197359 16.533856 1.037528 -16.664681 -13.474955 0.000000 -0.000000 0.000000 -2.379148 6.741662 18.699040 -0.866814 1.813472 -4.347185 2.989692 2.892165 5.057436 -2.105982 6.024646 -15.146013 -1.353869 5.319505 -10.878544 -15.490280 1.903090 -5.076456 -32.745659 -5.283588 -6.183409 17.981003 -20.349913 -19.617300 19.419418 -6.303486 -11.762801 15.890725 7.673955 0.563615 38.025120 10.235397 4.029114 -15.961063 24.494657 -9.876845 -11.671346 6.771357 -1.530551 
-2.048146 0.674273 1.002601 12.641591 2.008670 94.028476 1.894852 -3.824796 -19.933116 -2.770620 2.025103 23.475090 5.232730 14.402706 -11.346868 0.000000 -0.000000 0.000000 1.873732 -7.939539 -6.179697 -3.250923 -6.940836 13.854830 1.454262 -16.717543 -12.818406 0.000000 -0.000000 0.000000 -2.506294 7.351145 17.961255 -1.469644 2.202662 -3.611788 2.707234 3.532623 4.541905 -2.976233 6.024150 -14.851038 -1.389706 6.368923 -11.499633 -14.977774 1.520724 -5.107164 -31.965446 -5.541965 -6.216354 18.223001 -21.583337 -20.097962 17.512540 -6.788381 -11.327552 15.421563 7.686214 0.975838 37.966820 10.153646 4.056150 -16.102078 24.649226 -10.667415 -9.267941 6.772734 -1.137341 
-2.051603 0.675472 1.002737 16.248163 2.135349 94.529162 1.299694 -1.719461 -20.818477 -1.158060 9.233694 24.149108 5.843102 16.904551 -11.933258 0.000000 -0.000000 0.000000 2.338353 -8.201736 -6.365917 -3.128604 -9.140220 13.933709 1.326408 -17.494664 -13.261502 0.000000 -0.000000 0.000000 -1.440587 7.046524 18.064730 -1.608891 2.302720 -3.471698 2.470611 3.689711 4.519263 -3.578371 5.881960 -15.375488 -1.668002 7.367972 -11.583633 -15.419075 1.337935 -4.969270 -31.838118 -5.125855 -6.114596 18.808151 -23.534939 -20.284433 15.469859 -6.425648 -11.225761 15.213308 8.074494 1.503310 37.764862 10.436669 3.894283 -16.198071 24.481330 -11.293164 -8.060028 6.736708 -0.622208 
-2.054426 0.674120 0.999407 19.475602 2.582433 94.261172 0.717581 0.161455 -19.739076 -0.453954 13.633766 24.165198 6.145436 18.242044 -12.215459 0.000000 -0.000000 0.000000 2.983168 -8.393180 -6.237456 -3.127266 -11.704745 15.265653 1.143322 -17.962297 -14.152715 0.000000 -0.000000 0.000000 -0.980103 6.430966 19.042513 -1.566713 2.577315 -3.793044 2.768080 4.127919 4.202405 -3.558270 6.149863 -15.277774 -1.871248 8.493865 -11.571947 -15.565467 1.278402 -4.704715 -33.198832 -4.578179 -5.940062 18.955978 -24.894340 -19.599218 15.695857 -6.833198 -11.301419 15.313684 8.648259 1.859192 38.281713 10.843874 3.641614 -15.979582 23.372344 -11.245811 -8.783740 7.041388 0.014861 
